<svg width="467" height="469" viewBox="0 0 467 469" fill="none" xmlns="http://www.w3.org/2000/svg">
<mask id="mask0_79_775" style="mask-type:alpha" maskUnits="userSpaceOnUse" x="0" y="0" width="467" height="469">
<rect width="467" height="469" fill="url(#paint0_linear_79_775)"/>
</mask>
<g mask="url(#mask0_79_775)">
<path d="M391.827 124.902C397.143 132.682 397.992 143.126 394.751 155.516C391.511 167.903 384.211 182.109 373.43 197.24C351.872 227.495 316.53 261.27 272.499 291.355C228.467 321.44 184.156 342.089 148.134 351.175C130.12 355.719 114.233 357.356 101.515 355.872C88.7937 354.388 79.3732 349.801 74.0575 342.021C68.7417 334.241 67.8919 323.797 71.1328 311.406C74.3729 299.019 81.6736 284.814 92.4544 269.683C114.012 239.428 149.354 205.652 193.386 175.567C237.417 145.483 281.729 124.834 317.75 115.748C335.764 111.205 351.652 109.566 364.37 111.05C377.091 112.534 386.512 117.122 391.827 124.902Z" stroke="#B9B9B9" stroke-width="2"/>
<path d="M230.573 443.053C221.229 440.04 212.534 431.357 204.826 417.895C197.124 404.443 190.502 386.375 185.301 364.92C174.901 322.019 170.235 265.815 173.802 206.499C177.368 147.182 188.487 96.0677 203.552 61.3789C211.087 44.0302 219.588 30.8388 228.584 22.7717C237.587 14.6987 246.976 11.846 256.319 14.8591C265.663 17.8721 274.358 26.5561 282.066 40.0176C289.768 53.4693 296.39 71.5374 301.591 92.993C311.991 135.894 316.657 192.098 313.09 251.415C309.524 310.731 298.405 361.845 283.339 396.534C275.805 413.882 267.304 427.074 258.308 435.141C249.305 443.214 239.916 446.066 230.573 443.053Z" stroke="#B9B9B9" stroke-width="2"/>
<path d="M444.889 294.472C444.329 303.792 438.31 311.07 427.541 316.133C416.786 321.189 401.436 323.96 382.562 324.376C344.823 325.208 293.211 316.624 236.685 298.396C180.158 280.168 129.498 255.773 93.293 231.097C75.1856 218.755 60.7457 206.378 50.996 194.71C41.2346 183.028 36.3041 172.219 36.8645 162.899C37.4251 153.579 43.4431 146.301 54.2111 141.239C64.9664 136.183 80.3172 133.412 99.1917 132.996C136.93 132.163 188.541 140.747 245.068 158.975C301.594 177.203 352.256 201.598 388.46 226.275C406.567 238.616 421.007 250.994 430.757 262.662C440.518 274.344 445.449 285.152 444.889 294.472Z" stroke="#B9B9B9" stroke-width="2"/>
<path d="M261.586 214.62C270.471 227.623 267.041 245.449 253.898 254.429C240.756 263.408 222.903 260.124 214.019 247.121C205.134 234.117 208.564 216.293 221.706 207.313C234.848 198.333 252.701 201.617 261.586 214.62Z" stroke="#B9B9B9" stroke-width="2"/>
</g>
<defs>
<linearGradient id="paint0_linear_79_775" x1="364" y1="135.5" x2="69.1298" y2="469" gradientUnits="userSpaceOnUse">
<stop stop-color="#D9D9D9" stop-opacity="0"/>
<stop offset="1" stop-color="#737373"/>
</linearGradient>
</defs>
</svg>
