<svg width="156" height="78" viewBox="0 0 156 78" fill="none" xmlns="http://www.w3.org/2000/svg">
<g clip-path="url(#clip0_444_23)">
<path fill-rule="evenodd" clip-rule="evenodd" d="M12.053 -0.000169214H144.013C147.167 0.0306672 150.184 1.29244 152.421 3.51608C154.658 5.73972 155.938 8.7493 155.988 11.9031V66.1744C155.988 72.4434 150.354 77.9998 144.013 77.9998H12.053C5.64027 77.9998 0 72.7128 0 66.1744V11.9031C0.0284627 8.72902 1.31221 5.69527 3.5707 3.46483C5.82919 1.23439 8.87875 -0.0113734 12.053 -0.000169214ZM16.2442 24.1896L14.1366 36.0091L25.7405 42.5355L28.7343 37.7454L21.9983 32.7039L23.6928 24.2016H26.944C27.3632 27.9318 26.489 30.6023 24.4113 32.5842L27.908 35.1049C31.0994 33.3087 33.2968 29.8419 34.3447 24.1776H47.5712L46.6072 27.9498L34.8536 28.0636L33.8537 33.1051C34.8536 34.9313 35.9793 36.5419 38.0929 36.997C38.973 37.2305 40.5897 36.542 41.4699 34.9313C41.7407 34.3483 41.9416 33.7353 42.0686 33.1051H45.26L43.344 40.5476H50.3374L54.5287 24.1836H56.5286L57.6063 19.4894H16.1904L15.1306 24.1896H16.2442ZM132.559 57.9056C131.433 62.6118 125.673 66.4199 118.853 66.4199C111.069 66.4199 104.728 61.5161 104.728 55.5944C104.728 49.6727 111.057 44.691 118.853 44.691C125.739 44.691 131.643 48.6189 132.768 53.7143L123.278 53.84C122.649 52.5527 120.883 51.445 118.853 51.445C116.111 51.445 113.931 53.3131 113.931 55.5106C113.931 57.708 116.105 59.5761 118.853 59.5761C120.262 59.5859 121.621 59.0544 122.649 58.0912L132.559 57.9056ZM28.0038 44.7689H37.087L43.1404 56.6961L45.5354 44.7689H53.8102L48.619 66.6953H39.3922L33.4944 56.241L31.6982 66.6833H23.3156L28.0038 44.7689ZM81.2931 44.7689H94.2263C97.8188 44.7689 102.806 48.1818 102.806 51.9539C102.806 58.3307 99.3576 61.7556 93.4599 61.7556H85.5862L84.3887 66.7253H76.6647L81.2931 44.7689ZM88.1788 51.7863L87.4005 54.816H91.8971C92.4225 54.8266 92.9378 54.6715 93.37 54.3729C93.867 54.3729 94.4957 53.5945 94.4957 53.0137C94.4957 52.2354 93.7174 51.8162 91.8253 51.8162L88.1788 51.7863ZM56.3549 44.7689H78.8383L77.2216 52.1216H69.5575L66.1805 66.6953H58.744L61.4144 52.1216H54.7383L56.3549 44.7689ZM119.314 28.0695H124.368L125.158 24.1896H120.931L119.314 28.0695ZM123.332 33.1111H117.219L117.171 33.2248L120.422 35.9791L117.045 40.2003L107.465 34.2128L109.333 30.6681C113.063 29.297 114.44 26.4409 112.327 24.1537H111.842L112.919 19.4594H123.505L125.248 13.8371C125.745 12.3282 127.248 12.0828 128.745 12.0828C131.487 11.957 134.732 11.957 138.223 12.0828C139.72 12.0828 141.336 14.0826 141.336 15.2083L140.977 19.4594H142.223L141.145 24.1537H139.983L136.391 40.4039L130.152 40.5177L133.499 24.1537H131.888L128.296 40.4039L121.805 40.5177L123.332 33.1111ZM84.1013 24.1896C83.3589 28.0216 81.7063 33.0871 82.9038 35.0031C83.9037 36.7216 86.0173 36.8293 88.2926 36.3743C89.4542 36.2605 90.52 35.6558 91.975 34.9253L90.8253 40.5596L97.3159 40.4458L100.908 24.1956H102.513L99.166 40.5596L105.405 40.4458L108.998 24.1956H110.195L111.273 19.5013H110.135L110.495 15.2502C110.495 14.1245 108.878 12.1246 107.369 12.1246C103.501 11.9989 100.375 11.9989 97.8907 12.1246C96.3938 12.1246 94.8969 12.3702 94.3939 13.879L92.6515 19.5013H83.9456L82.8679 24.1956H84.1133L84.1013 24.1896ZM92.9869 29.7281C91.1307 30.4825 89.8853 29.9017 90.3643 28.4827L91.1786 24.1956H94.1664L92.9869 29.7281ZM130.858 19.4954L131.229 18.4954C131.355 18.2499 131.601 18.2499 131.984 18.2499H133.852C134.097 18.2499 134.451 18.7469 134.451 18.7469L134.349 19.5013L130.858 19.4954ZM99.9863 19.4954L100.358 18.4954C100.483 18.2499 100.729 18.2499 101.112 18.2499H102.98C103.226 18.2499 103.579 18.7469 103.579 18.7469L103.477 19.5013L99.9863 19.4954ZM80.6585 19.4954L81.0177 15.2442C81.0177 14.1185 79.4011 12.1187 77.9042 12.1187C74.7523 11.8092 71.5777 11.8092 68.4259 12.1187C66.929 12.2444 65.4321 12.3642 64.9291 13.873L63.1868 19.4954H59.205L58.1392 24.1896H65.2465L64.6896 26.8361C56.9537 26.8361 53.457 30.8418 53.9599 34.8594C54.5587 39.6495 60.5462 41.4937 68.3301 40.7033L69.4557 34.7457H63.3185C61.3186 34.7457 62.0731 32.7937 63.1927 32.4584L69.9287 32.3447L71.725 24.2135H73.2099L69.8629 40.5776L76.3534 40.4638L79.3472 24.2135H81.3889L82.4667 19.5193H80.6705L80.6585 19.4954ZM70.5215 19.4954L70.8928 18.4954C71.0185 18.2499 71.264 18.2499 71.6472 18.2499H73.5153C73.7608 18.2499 74.144 18.7469 74.144 18.7469V19.5013L70.5215 19.4954ZM16.4119 5.90957H140.564C147.474 5.90957 150.366 8.76564 150.366 15.1663V62.8992C150.366 69.228 147.126 72.156 140.564 72.156H16.4239C7.89759 72.156 6.62224 68.743 6.62224 62.8992V15.1663C6.62224 9.2626 8.87357 5.90957 16.4239 5.90957H16.4119Z" fill="#007DC4"/>
</g>
<defs>
<clipPath id="clip0_444_23">
<rect width="156" height="78" fill="white"/>
</clipPath>
</defs>
</svg>
