<svg width="111" height="110" viewBox="0 0 111 110" fill="none" xmlns="http://www.w3.org/2000/svg">
<path d="M43.7889 96.5882C43.6197 97.2196 43.9941 97.8701 44.6297 98.0228C50.6355 99.4657 56.8747 99.6705 62.9586 98.6196C69.4308 97.5016 75.5697 94.9895 80.9432 91.2604C86.3167 87.5312 90.794 82.6756 94.06 77.0354C97.3259 71.3953 99.301 65.1077 99.8462 58.6155C100.391 52.1232 99.4934 45.5842 97.2155 39.4587C94.9376 33.3333 91.3352 27.7704 86.6619 23.1619C81.9886 18.5533 76.358 15.011 70.1667 12.7845C64.3502 10.6928 58.1716 9.81016 52.0164 10.1866C51.3601 10.2267 50.8771 10.808 50.9388 11.4626C51 12.1111 51.5731 12.5869 52.2233 12.5479C58.0357 12.1989 63.8693 13.0355 69.3618 15.0107C75.2242 17.1189 80.5557 20.473 84.9807 24.8368C89.4058 29.2005 92.8168 34.4679 94.9737 40.2679C97.1306 46.068 97.9809 52.2596 97.4646 58.407C96.9484 64.5544 95.0782 70.5079 91.9858 75.8485C88.8934 81.189 84.6539 85.7867 79.5659 89.3177C74.4778 92.8488 68.665 95.2274 62.5366 96.286C56.7966 97.2776 50.9105 97.0885 45.2425 95.7356C44.6067 95.5838 43.9581 95.9568 43.7889 96.5882Z" fill="white"/>
<path d="M40.0969 71.3198V59.7632C40.0969 59.1572 40.2387 58.5812 40.5222 58.0351C40.8057 57.4906 41.2085 57.0556 41.7305 56.7301L44.4216 54.9682C44.6841 57.5994 45.0247 59.8765 45.4432 61.7996C45.8617 63.7227 46.5412 65.9053 47.4818 68.3474L40.0969 71.3198ZM49.2121 67.2966C48.3046 64.994 47.604 62.6359 47.1105 60.2222C46.617 57.8086 46.3695 55.3508 46.368 52.8486C46.368 48.8809 47.0445 45.2365 48.3976 41.9153C49.7476 38.5942 51.841 35.648 54.6776 33.0769C57.5128 35.648 59.6061 38.5942 60.9577 41.9153C62.3093 45.2365 62.9851 48.8809 62.9851 52.8486C62.9851 55.3403 62.7383 57.7914 62.2448 60.202C61.7527 62.6126 61.0522 64.9775 60.1432 67.2966H49.2121ZM54.6776 53.1029C55.6272 53.1029 56.4267 52.7774 57.0763 52.1263C57.7273 51.4768 58.0528 50.6773 58.0528 49.7277C58.0528 48.7782 57.7273 47.9786 57.0763 47.3291C56.4252 46.6796 55.6257 46.3541 54.6776 46.3526C53.7296 46.3511 52.9301 46.6766 52.279 47.3291C51.628 47.9786 51.3025 48.7782 51.3025 49.7277C51.3025 50.6773 51.628 51.4768 52.279 52.1263C52.9301 52.7759 53.7296 53.1014 54.6776 53.1029ZM69.2179 71.3198L61.8307 68.3901C62.7713 65.9495 63.4508 63.7602 63.8693 61.8221C64.2879 59.884 64.6284 57.5994 64.8909 54.9682L67.582 56.7728C68.1041 57.0983 68.5068 57.5334 68.7903 58.0779C69.0753 58.6239 69.2179 59.1999 69.2179 59.806V71.3198Z" fill="white"/>
<circle cx="55.015" cy="54.6912" r="43.5396" stroke="white" stroke-opacity="0.34" stroke-width="1.35007"/>
<circle cx="46.2396" cy="97.2183" r="3.71268" fill="white"/>
</svg>
