<svg width="111" height="110" viewBox="0 0 111 110" fill="none" xmlns="http://www.w3.org/2000/svg">
<path d="M35.1018 55.7588V58.2058C44.8897 72.8878 64.4657 72.8878 74.2537 58.2058V55.7588C64.4657 41.0768 44.8897 41.0768 35.1018 55.7588ZM54.6777 66.7703C49.2714 66.7703 44.8897 62.3886 44.8897 56.9823C44.8897 51.576 49.2714 47.1943 54.6777 47.1943C60.0841 47.1943 64.4657 51.576 64.4657 56.9823C64.4657 62.3886 60.0841 66.7703 54.6777 66.7703ZM54.6777 51.4766C54.6777 50.8419 54.8077 50.2454 55.0065 49.6719C54.8918 49.6642 54.7924 49.6413 54.6777 49.6413C50.6249 49.6413 47.3367 52.9295 47.3367 56.9823C47.3367 61.0351 50.6249 64.3233 54.6777 64.3233C58.7306 64.3233 62.0187 61.0351 62.0187 56.9823C62.0187 56.8676 61.9881 56.7682 61.9881 56.6535C61.4223 56.8523 60.8182 56.9823 60.1835 56.9823C57.14 56.9823 54.6777 54.52 54.6777 51.4766Z" fill="white"/>
<path d="M43.7889 96.5882C43.6197 97.2196 43.9941 97.8701 44.6297 98.0228C50.6355 99.4657 56.8747 99.6705 62.9586 98.6196C69.4308 97.5016 75.5697 94.9895 80.9432 91.2604C86.3167 87.5312 90.794 82.6756 94.06 77.0354C97.3259 71.3953 99.301 65.1077 99.8462 58.6155C100.391 52.1232 99.4934 45.5842 97.2155 39.4587C94.9376 33.3333 91.3352 27.7704 86.6619 23.1619C81.9886 18.5533 76.358 15.011 70.1667 12.7845C64.3502 10.6928 58.1716 9.81016 52.0164 10.1866C51.3601 10.2267 50.8771 10.808 50.9388 11.4626C51 12.1111 51.5731 12.5869 52.2233 12.5479C58.0357 12.1989 63.8693 13.0355 69.3618 15.0107C75.2242 17.1189 80.5557 20.473 84.9807 24.8368C89.4058 29.2005 92.8168 34.4679 94.9737 40.2679C97.1306 46.068 97.9809 52.2596 97.4646 58.407C96.9484 64.5544 95.0782 70.5079 91.9858 75.8485C88.8934 81.189 84.6539 85.7867 79.5659 89.3177C74.4778 92.8488 68.665 95.2274 62.5366 96.286C56.7966 97.2776 50.9105 97.0885 45.2425 95.7356C44.6067 95.5838 43.9581 95.9568 43.7889 96.5882Z" fill="white"/>
<circle cx="55.0151" cy="54.6912" r="43.5396" stroke="white" stroke-opacity="0.34" stroke-width="1.35007"/>
<circle cx="46.2396" cy="97.2183" r="3.71268" fill="white"/>
</svg>
