<svg width="89" height="89" viewBox="0 0 89 89" fill="none" xmlns="http://www.w3.org/2000/svg">
<path d="M29.2966 60.8432V49.2867C29.2966 48.6806 29.4383 48.1046 29.7218 47.5586C30.0054 47.014 30.4081 46.579 30.9301 46.2535L33.6213 44.4917C33.8838 47.1228 34.2243 49.3999 34.6428 51.323C35.0614 53.2461 35.7409 55.4287 36.6814 57.8708L29.2966 60.8432ZM38.4118 56.82C37.5042 54.5174 36.8037 52.1593 36.3102 49.7457C35.8166 47.3321 35.5691 44.8742 35.5676 42.3721C35.5676 38.4044 36.2442 34.7599 37.5972 31.4388C38.9473 28.1176 41.0406 25.1715 43.8773 22.6003C46.7124 25.1715 48.8058 28.1176 50.1573 31.4388C51.5089 34.7599 52.1847 38.4044 52.1847 42.3721C52.1847 44.8637 51.9379 47.3148 51.4444 49.7254C50.9524 52.136 50.2519 54.5009 49.3428 56.82H38.4118ZM43.8773 42.6263C44.8268 42.6263 45.6264 42.3008 46.2759 41.6498C46.9269 41.0002 47.2525 40.2007 47.2525 39.2512C47.2525 38.3016 46.9269 37.5021 46.2759 36.8525C45.6249 36.203 44.8253 35.8775 43.8773 35.876C42.9292 35.8745 42.1297 36.2 41.4787 36.8525C40.8276 37.5021 40.5021 38.3016 40.5021 39.2512C40.5021 40.2007 40.8276 41.0002 41.4787 41.6498C42.1297 42.2993 42.9292 42.6248 43.8773 42.6263ZM58.4175 60.8432L51.0304 57.9136C51.9709 55.473 52.6505 53.2836 53.069 51.3455C53.4875 49.4074 53.828 47.1228 54.0905 44.4917L56.7817 46.2963C57.3037 46.6218 57.7065 47.0568 57.99 47.6013C58.275 48.1474 58.4175 48.7234 58.4175 49.3294V60.8432Z" fill="white"/>
<circle cx="44.2147" cy="44.2147" r="43.5396" stroke="white" stroke-opacity="0.34" stroke-width="1.35007"/>
</svg>
