<svg width="163" height="163" viewBox="0 0 163 163" fill="none" xmlns="http://www.w3.org/2000/svg">
<path d="M64.8692 143.086C64.6186 144.022 65.1732 144.986 66.1147 145.212C75.0118 147.349 84.2547 147.653 93.2673 146.096C102.855 144.44 111.95 140.718 119.91 135.194C127.87 129.669 134.503 122.476 139.341 114.121C144.179 105.765 147.105 96.451 147.913 86.8333C148.721 77.2157 147.39 67.5286 144.016 58.4544C140.641 49.3801 135.305 41.1392 128.382 34.312C121.459 27.4849 113.117 22.2373 103.946 18.939C95.3289 15.8403 86.1759 14.5327 77.0575 15.0903C76.0853 15.1498 75.3697 16.0109 75.4612 16.9807C75.5518 17.9414 76.4007 18.6463 77.3639 18.5884C85.9746 18.0714 94.6164 19.3108 102.753 22.2369C111.438 25.36 119.336 30.3288 125.891 36.7933C132.446 43.2578 137.5 51.0609 140.695 59.6531C143.89 68.2453 145.15 77.4177 144.385 86.5245C143.62 95.6312 140.85 104.451 136.269 112.362C131.687 120.274 125.407 127.085 117.87 132.316C110.332 137.547 101.721 141.071 92.6422 142.639C84.1389 144.108 75.4192 143.828 67.0226 141.823C66.0807 141.599 65.1198 142.151 64.8692 143.086Z" fill="white"/>
<circle cx="81.4998" cy="81.02" r="64.5" stroke="white" stroke-opacity="0.34" stroke-width="2"/>
<circle cx="68.4998" cy="144.02" r="5.5" fill="white"/>
</svg>
