<svg width="107" height="85" viewBox="0 0 107 85" fill="none" xmlns="http://www.w3.org/2000/svg">
<g clip-path="url(#clip0_719_30)">
<path d="M20.5184 8.35316C22.1461 9.302 22.6263 11.6887 22.6795 13.4938C22.6859 14.052 22.6585 14.4796 22.536 15.0735L19.9765 28.6616C19.8202 29.1249 19.8266 29.683 19.962 30.2055L20.605 32.6871C21.63 31.8431 22.8242 31.6522 24.2828 31.948C26.3585 32.4927 27.8976 34.166 28.473 36.3864L31.7895 49.1862C31.9926 49.9699 32.0667 50.7893 32.0119 51.6444L30.8658 61.6211C31.9988 61.7272 33.1721 62.522 33.5105 63.8281L35.1349 70.0974C35.541 71.6647 34.5901 73.3281 33.0429 73.7568L19.8918 77.4008C18.2157 77.8653 16.588 76.9164 16.1819 75.3491L14.5574 69.0798C14.2529 67.9043 14.6606 66.8114 15.4278 66.0389L11.942 52.586C11.8405 52.1942 11.7728 51.9329 11.8002 51.5054L10.1035 30.5574C10.0632 29.8686 10.0568 29.3104 10.1793 28.7165L13.8396 12.4436C14.3022 10.4956 15.5448 8.89136 17.1533 8.1657C18.7955 7.57065 19.8334 7.84301 20.5184 8.35316ZM17.1361 68.3653L18.7605 74.6346C18.7943 74.7652 18.9571 74.8601 19.0861 74.8244L32.2372 71.1803C32.3661 71.1446 32.4612 70.9782 32.4273 70.8476L30.8029 64.5783C30.7691 64.4477 30.6063 64.3528 30.4774 64.3885L29.5748 64.6386L17.3263 68.0326C17.1973 68.0683 17.1022 68.2347 17.1361 68.3653ZM18.3458 10.635C17.4771 11.0157 16.8728 11.8831 16.5939 12.9403L12.9336 29.2132C12.8723 29.5102 12.8449 29.9377 12.9126 30.199L14.6093 51.147C14.6432 51.2776 14.7109 51.5388 14.7447 51.6694L18.1628 64.8611L27.9616 62.1459L29.2914 51.2783C29.3188 50.8508 29.3124 50.2926 29.2109 49.9008L25.8943 37.1009C25.5559 35.7948 24.6066 34.798 23.5688 34.5256C22.8226 34.3124 22.3068 34.4553 21.9603 35.2513C21.451 35.9523 21.3011 36.9738 21.5719 38.0187L24.753 50.2961C24.9561 51.0797 24.5757 51.7451 23.8021 51.9594C23.0285 52.1738 22.3774 51.7942 22.1744 51.0106L18.9932 38.7332C18.7902 37.9495 18.716 37.1301 18.8047 36.4056L17.3833 30.92C17.1464 30.0057 17.1674 29.02 17.2222 28.1649L19.7817 14.5768C19.843 14.2798 19.9042 13.9829 19.8366 13.7216C19.7834 11.9165 19.2548 10.9431 18.8954 10.6227C18.9905 10.4564 18.7326 10.5278 18.3458 10.635Z" fill="#2F469A"/>
<path d="M28.729 26.7111C28.729 24.8715 29.1269 23.2353 29.9229 21.8025C30.7189 20.3521 31.8244 19.2289 33.2395 18.4329C34.6723 17.6192 36.2908 17.2124 38.095 17.2124C40.306 17.2124 42.1987 17.7961 43.773 18.9635C45.3472 20.131 46.3997 21.7229 46.9303 23.7394H41.9422C41.5707 22.9611 41.0401 22.3686 40.3502 21.9617C39.6781 21.5549 38.9086 21.3515 38.0419 21.3515C36.6445 21.3515 35.5125 21.8379 34.6457 22.8108C33.779 23.7836 33.3456 25.0837 33.3456 26.7111C33.3456 28.3384 33.779 29.6385 34.6457 30.6114C35.5125 31.5842 36.6445 32.0706 38.0419 32.0706C38.9086 32.0706 39.6781 31.8672 40.3502 31.4604C41.0401 31.0536 41.5707 30.461 41.9422 29.6827H46.9303C46.3997 31.6992 45.3472 33.2911 43.773 34.4586C42.1987 35.6083 40.306 36.1832 38.095 36.1832C36.2908 36.1832 34.6723 35.7852 33.2395 34.9892C31.8244 34.1756 30.7189 33.0524 29.9229 31.6196C29.1269 30.1868 28.729 28.5507 28.729 26.7111ZM56.4481 36.2363C55.0861 36.2363 53.8656 36.0152 52.7866 35.573C51.7076 35.1307 50.8409 34.4763 50.1864 33.6095C49.5496 32.7428 49.2135 31.6992 49.1781 30.4787H54.0071C54.0778 31.1685 54.3166 31.6992 54.7235 32.0706C55.1303 32.4244 55.6609 32.6013 56.3154 32.6013C56.9876 32.6013 57.5182 32.4509 57.9074 32.1502C58.2965 31.8319 58.4911 31.3985 58.4911 30.8501C58.4911 30.3902 58.3319 30.0099 58.0135 29.7092C57.7128 29.4085 57.3325 29.1609 56.8726 28.9663C56.4304 28.7718 55.7936 28.5507 54.9623 28.303C53.7594 27.9316 52.7777 27.5601 52.0171 27.1886C51.2565 26.8172 50.6021 26.2688 50.0537 25.5436C49.5054 24.8184 49.2312 23.8721 49.2312 22.7046C49.2312 20.9712 49.8591 19.618 51.115 18.6451C52.3709 17.6546 54.0071 17.1593 56.0236 17.1593C58.0754 17.1593 59.7293 17.6546 60.9852 18.6451C62.241 19.618 62.9132 20.98 63.0016 22.7312H58.0931C58.0577 22.1298 57.8366 21.661 57.4298 21.3249C57.023 20.9712 56.5011 20.7943 55.8644 20.7943C55.316 20.7943 54.8738 20.9446 54.5377 21.2453C54.2017 21.5284 54.0336 21.944 54.0336 22.4924C54.0336 23.0938 54.3166 23.5625 54.8827 23.8986C55.4487 24.2347 56.3331 24.5973 57.5359 24.9864C58.7387 25.3933 59.7116 25.7824 60.4545 26.1539C61.2151 26.5253 61.8696 27.0648 62.4179 27.7724C62.9663 28.4799 63.2404 29.3909 63.2404 30.5052C63.2404 31.5665 62.9663 32.5305 62.4179 33.3973C61.8873 34.264 61.109 34.9539 60.083 35.4668C59.0571 35.9798 57.8455 36.2363 56.4481 36.2363ZM75.5312 36.0505L71.6575 29.0194H70.5696V36.0505H66.0326V17.4246H73.6474C75.1156 17.4246 76.3626 17.6811 77.3885 18.1941C78.4321 18.7071 79.2104 19.4146 79.7234 20.3167C80.2364 21.2011 80.4928 22.1917 80.4928 23.2883C80.4928 24.5265 80.1391 25.6321 79.4315 26.6049C78.7417 27.5778 77.7158 28.2676 76.3538 28.6745L80.652 36.0505H75.5312ZM70.5696 25.8089H73.3821C74.2135 25.8089 74.8326 25.6055 75.2394 25.1987C75.6639 24.7919 75.8762 24.217 75.8762 23.4741C75.8762 22.7665 75.6639 22.2094 75.2394 21.8025C74.8326 21.3957 74.2135 21.1923 73.3821 21.1923H70.5696V25.8089Z" fill="#2F469A"/>
<path d="M91.1772 8.52162C89.5494 9.47046 89.0692 11.8572 89.0161 13.6623C89.0096 14.2205 89.037 14.648 89.1595 15.2419L91.7191 28.83C91.8754 29.2933 91.869 29.8515 91.7336 30.3739L91.0906 32.8555C90.0656 32.0115 88.8713 31.8206 87.4128 32.1164C85.337 32.6611 83.7979 34.3345 83.2226 36.5549L79.9061 49.3547C79.703 50.1384 79.6289 50.9577 79.6837 51.8129L80.8297 61.7896C79.6968 61.8956 78.5235 62.6904 78.1851 63.9965L76.5606 70.2658C76.1545 71.8332 77.1054 73.4965 78.6526 73.9252L91.8037 77.5693C93.4798 78.0337 95.1076 77.0849 95.5137 75.5176L97.1381 69.2483C97.4427 68.0728 97.0349 66.9799 96.2678 66.2073L99.7535 52.7545C99.8551 52.3626 99.9227 52.1014 99.8953 51.6738L101.592 30.7258C101.632 30.037 101.639 29.4789 101.516 28.885L97.8559 12.612C97.3933 10.664 96.1507 9.05982 94.5423 8.33416C92.9 7.73911 91.8621 8.01147 91.1772 8.52162ZM94.5595 68.5337L92.9351 74.803C92.9012 74.9337 92.7384 75.0285 92.6095 74.9928L79.4584 71.3487C79.3295 71.313 79.2344 71.1467 79.2682 71.0161L80.8927 64.7468C80.9265 64.6162 81.0893 64.5213 81.2182 64.557L82.1207 64.8071L94.3693 68.2011C94.4982 68.2368 94.5933 68.4031 94.5595 68.5337ZM93.3497 10.8035C94.2184 11.1842 94.8228 12.0516 95.1016 13.1087L98.762 29.3817C98.8232 29.6786 98.8506 30.1062 98.7829 30.3674L97.0862 51.3154C97.0524 51.446 96.9847 51.7073 96.9509 51.8379L93.5328 65.0295L83.7339 62.3143L82.4041 51.4468C82.3767 51.0192 82.3832 50.461 82.4847 50.0692L85.8012 37.2694C86.1397 35.9633 87.0889 34.9664 88.1268 34.6941C88.873 34.4809 89.3887 34.6238 89.7352 35.4197C90.2445 36.1208 90.3944 37.1422 90.1237 38.1871L86.9425 50.4645C86.7395 51.2482 87.1198 51.9135 87.8934 52.1279C88.667 52.3422 89.3181 51.9627 89.5212 51.179L92.7023 38.9016C92.9054 38.118 92.9795 37.2986 92.8909 36.5741L94.3122 31.0884C94.5491 30.1742 94.5282 29.1884 94.4734 28.3333L91.9138 14.7452C91.8526 14.4483 91.7913 14.1513 91.859 13.8901C91.9122 12.085 92.4408 11.1115 92.8002 10.7912C92.7051 10.6248 92.9629 10.6963 93.3497 10.8035Z" fill="#2F469A"/>
</g>
<defs>
<clipPath id="clip0_719_30">
<rect width="107" height="85" fill="white"/>
</clipPath>
</defs>
</svg>
