<svg width="84" height="85" viewBox="0 0 84 85" fill="none" xmlns="http://www.w3.org/2000/svg">
<path d="M76.293 52.3308C75.1878 51.8607 73.9042 51.5871 72.5576 51.5871C71.043 51.5871 69.6097 51.9324 68.3287 52.5487L68.3891 52.5221L53.2218 59.4151C53.2297 59.2902 53.2901 59.184 53.2901 59.0591C53.2507 55.4174 50.3265 52.4822 46.7224 52.4822C46.5412 52.4822 46.3627 52.4902 46.1868 52.5035L46.2105 52.5008H36.2801L23.7851 48.7954C23.6224 48.7422 23.436 48.713 23.2417 48.713H23.2312H17.5376V46.7022C17.5376 45.6026 16.6556 44.7101 15.5689 44.7101H5.37598C4.28923 44.7101 3.40723 45.6026 3.40723 46.7022V79.1297C3.40723 80.2294 4.28923 81.1219 5.37598 81.1219H15.5689C16.6556 81.1219 17.5376 80.2294 17.5376 79.1297V76.4602C22.3099 77.2146 26.5807 78.4312 30.6285 80.0913L30.2374 79.9479C33.2561 81.0529 36.7421 81.6904 40.3751 81.6904C40.3935 81.6904 40.4119 81.6904 40.4302 81.6904H40.4276C40.4407 81.6904 40.4565 81.6904 40.4722 81.6904C44.6827 81.6904 48.6963 80.843 52.3582 79.3051L52.1535 79.3821C55.4164 77.9132 58.1857 76.3646 60.8081 74.6035L60.5929 74.739C61.4801 74.1838 62.3621 73.6286 63.2546 73.0947C67.5412 70.5261 70.9852 68.271 74.0932 65.9972C75.6131 64.9029 76.9361 63.8218 78.1961 62.669L78.1593 62.7035C79.1385 61.9013 79.9207 60.8919 80.4457 59.7391L80.4667 59.6887C80.5481 59.4788 80.5927 59.2371 80.5927 58.9821C80.5927 58.8307 80.577 58.6846 80.5455 58.5438L80.5481 58.5571C80.1648 55.8557 78.5662 53.6005 76.3402 52.3494L76.2982 52.3282L76.293 52.3308ZM13.6001 77.1402H7.34473V48.6944H13.6001V77.1402ZM75.3874 59.8746C74.3059 60.8574 73.1299 61.811 71.9014 62.6955L71.778 62.7805C68.7776 64.9746 65.4307 67.1633 61.2412 69.6762C60.3277 70.2207 59.4273 70.7865 58.5191 71.3522C56.2773 72.8743 53.697 74.3272 51.0011 75.5651L50.6599 75.7058C47.6359 76.9649 44.1236 77.6927 40.4433 77.6927C37.2855 77.6927 34.251 77.1535 31.4238 76.1654L31.6181 76.2238C27.5362 74.5026 22.7902 73.1824 17.8421 72.4865L17.535 72.4519V52.7001H22.9477L35.4427 56.4055C35.6055 56.4587 35.7918 56.4879 35.9861 56.4879H35.9966H46.2079C48.5257 56.4879 49.35 57.8718 49.35 59.0618C49.35 60.2518 48.5257 61.6357 46.2079 61.6357H28.3342C27.2475 61.6357 26.3655 62.5282 26.3655 63.6279C26.3655 64.7276 27.2475 65.6201 28.3342 65.6201H48.7594H48.7699C49.0586 65.6201 49.3316 65.5563 49.5757 65.4394L49.5652 65.4447L70.0271 56.1479C70.7831 55.7972 71.6677 55.5927 72.5996 55.5927C73.2952 55.5927 73.9646 55.7069 74.5894 55.9168L74.5447 55.9035C75.5501 56.5144 76.272 57.5079 76.5187 58.6819L76.524 58.7112C76.167 59.1335 75.7942 59.5133 75.3978 59.8666L75.3847 59.8772L75.3874 59.8746ZM43.134 44.4657C43.4962 44.8721 44.016 45.1244 44.5961 45.1244C45.1762 45.1244 45.696 44.8721 46.0556 44.4683L46.0582 44.4657L61.7268 26.8919C64.5671 24.2171 66.3836 20.4612 66.5359 16.2749V16.2483C66.5359 16.2165 66.5359 16.1793 66.5359 16.1421C66.5359 12.604 65.1105 9.40584 62.8084 7.09756C60.4354 4.76537 57.1961 3.32568 53.6209 3.32568C50.1191 3.32568 46.9376 4.70693 44.5777 6.95678L44.5856 6.95147C42.3517 5.031 39.4354 3.86225 36.2486 3.86225C35.1146 3.86225 34.0174 4.011 32.97 4.28725L33.0592 4.266C28.455 5.58881 24.9034 9.18537 23.6171 13.7462L23.5935 13.8444C23.3467 14.8113 23.205 15.919 23.205 17.0638C23.205 20.9287 24.8299 24.411 27.4286 26.8468L27.4365 26.8547L43.134 44.4657ZM27.3971 14.8777C28.3185 11.5893 30.8254 9.05256 34.0069 8.1335L34.0751 8.11756C34.7287 7.93162 35.4821 7.82537 36.2591 7.82537C39.0101 7.91568 41.4645 9.1349 43.197 11.0368L43.2022 11.0447C43.5592 11.406 44.0501 11.6291 44.5935 11.6291C45.1369 11.6291 45.6303 11.406 45.9847 11.0447C47.9325 8.87193 50.6835 7.46678 53.7574 7.3074H53.7836H53.8492C58.6845 7.33928 62.5905 11.313 62.5905 16.2085C62.5905 16.2138 62.5905 16.2165 62.5905 16.2218C62.433 19.3615 61.0444 22.1426 58.9076 24.1082L58.8997 24.1162L58.8288 24.1905L44.5908 40.1626L30.2846 24.1162C28.35 22.3869 27.1372 19.8715 27.1372 17.0691C27.1372 16.2935 27.2291 15.5391 27.405 14.8166L27.3919 14.8804L27.3971 14.8777Z" fill="#DCDCDC"/>
<path d="M76.293 52.3308C75.1878 51.8607 73.9042 51.5871 72.5576 51.5871C71.043 51.5871 69.6097 51.9324 68.3287 52.5487L68.3891 52.5221L53.2218 59.4151C53.2297 59.2902 53.2901 59.184 53.2901 59.0591C53.2507 55.4174 50.3265 52.4822 46.7224 52.4822C46.5412 52.4822 46.3627 52.4902 46.1868 52.5035L46.2105 52.5008H36.2801L23.7851 48.7954C23.6224 48.7422 23.436 48.713 23.2417 48.713H23.2312H17.5376V46.7022C17.5376 45.6026 16.6556 44.7101 15.5689 44.7101H5.37598C4.28923 44.7101 3.40723 45.6026 3.40723 46.7022V79.1297C3.40723 80.2294 4.28923 81.1219 5.37598 81.1219H15.5689C16.6556 81.1219 17.5376 80.2294 17.5376 79.1297V76.4602C22.3099 77.2146 26.5807 78.4312 30.6285 80.0913L30.2374 79.9479C33.2561 81.0529 36.7421 81.6904 40.3751 81.6904C40.3935 81.6904 40.4119 81.6904 40.4302 81.6904H40.4276C40.4407 81.6904 40.4565 81.6904 40.4722 81.6904C44.6827 81.6904 48.6963 80.843 52.3582 79.3051L52.1535 79.3821C55.4164 77.9132 58.1857 76.3646 60.8081 74.6035L60.5929 74.739C61.4801 74.1838 62.3621 73.6286 63.2546 73.0947C67.5412 70.5261 70.9852 68.271 74.0932 65.9972C75.6131 64.9029 76.9361 63.8218 78.1961 62.669L78.1593 62.7035C79.1385 61.9013 79.9207 60.8919 80.4457 59.7391L80.4667 59.6887C80.5481 59.4788 80.5927 59.2371 80.5927 58.9821C80.5927 58.8307 80.577 58.6846 80.5455 58.5438L80.5481 58.5571C80.1648 55.8557 78.5662 53.6005 76.3402 52.3494L76.2982 52.3282L76.293 52.3308ZM13.6001 77.1402H7.34473V48.6944H13.6001V77.1402ZM75.3874 59.8746C74.3059 60.8574 73.1299 61.811 71.9014 62.6955L71.778 62.7805C68.7776 64.9746 65.4307 67.1633 61.2412 69.6762C60.3277 70.2207 59.4273 70.7865 58.5191 71.3522C56.2773 72.8743 53.697 74.3272 51.0011 75.5651L50.6599 75.7058C47.6359 76.9649 44.1236 77.6927 40.4433 77.6927C37.2855 77.6927 34.251 77.1535 31.4238 76.1654L31.6181 76.2238C27.5362 74.5026 22.7902 73.1824 17.8421 72.4865L17.535 72.4519V52.7001H22.9477L35.4427 56.4055C35.6055 56.4587 35.7918 56.4879 35.9861 56.4879H35.9966H46.2079C48.5257 56.4879 49.35 57.8718 49.35 59.0618C49.35 60.2518 48.5257 61.6357 46.2079 61.6357H28.3342C27.2475 61.6357 26.3655 62.5282 26.3655 63.6279C26.3655 64.7276 27.2475 65.6201 28.3342 65.6201H48.7594H48.7699C49.0586 65.6201 49.3316 65.5563 49.5757 65.4394L49.5652 65.4447L70.0271 56.1479C70.7831 55.7972 71.6677 55.5927 72.5996 55.5927C73.2952 55.5927 73.9646 55.7069 74.5894 55.9168L74.5447 55.9035C75.5501 56.5144 76.272 57.5079 76.5187 58.6819L76.524 58.7112C76.167 59.1335 75.7942 59.5133 75.3978 59.8666L75.3847 59.8772L75.3874 59.8746ZM43.134 44.4657C43.4962 44.8721 44.016 45.1244 44.5961 45.1244C45.1762 45.1244 45.696 44.8721 46.0556 44.4683L46.0582 44.4657L61.7268 26.8919C64.5671 24.2171 66.3836 20.4612 66.5359 16.2749V16.2483C66.5359 16.2165 66.5359 16.1793 66.5359 16.1421C66.5359 12.604 65.1105 9.40584 62.8084 7.09756C60.4354 4.76537 57.1961 3.32568 53.6209 3.32568C50.1191 3.32568 46.9376 4.70693 44.5777 6.95678L44.5856 6.95147C42.3517 5.031 39.4354 3.86225 36.2486 3.86225C35.1146 3.86225 34.0174 4.011 32.97 4.28725L33.0592 4.266C28.455 5.58881 24.9034 9.18537 23.6171 13.7462L23.5935 13.8444C23.3467 14.8113 23.205 15.919 23.205 17.0638C23.205 20.9287 24.8299 24.411 27.4286 26.8468L27.4365 26.8547L43.134 44.4657ZM27.3971 14.8777C28.3185 11.5893 30.8254 9.05256 34.0069 8.1335L34.0751 8.11756C34.7287 7.93162 35.4821 7.82537 36.2591 7.82537C39.0101 7.91568 41.4645 9.1349 43.197 11.0368L43.2022 11.0447C43.5592 11.406 44.0501 11.6291 44.5935 11.6291C45.1369 11.6291 45.6303 11.406 45.9847 11.0447C47.9325 8.87193 50.6835 7.46678 53.7574 7.3074H53.7836H53.8492C58.6845 7.33928 62.5905 11.313 62.5905 16.2085C62.5905 16.2138 62.5905 16.2165 62.5905 16.2218C62.433 19.3615 61.0444 22.1426 58.9076 24.1082L58.8997 24.1162L58.8288 24.1905L44.5908 40.1626L30.2846 24.1162C28.35 22.3869 27.1372 19.8715 27.1372 17.0691C27.1372 16.2935 27.2291 15.5391 27.405 14.8166L27.3919 14.8804L27.3971 14.8777Z" fill="#DCDCDC"/>
</svg>
