<svg width="66" height="77" viewBox="0 0 66 77" fill="none" xmlns="http://www.w3.org/2000/svg">
<path d="M35.7446 0C31.9419 0 28.7837 2.66406 27.8384 6.1875C26.8716 5.79004 25.8511 5.5 24.7446 5.5C20.2222 5.5 16.4946 9.22754 16.4946 13.75V43.3125L14.0884 40.9062C10.8872 37.7051 5.60205 37.7051 2.40088 40.9062C-0.800293 44.1074 -0.800293 49.3926 2.40088 52.5938L21.0493 71.2422C24.2827 74.4648 28.7515 77 34.0259 77H46.7446C57.3472 77 65.9946 68.3525 65.9946 57.75V24.75C65.9946 20.2275 62.2671 16.5 57.7446 16.5C56.7778 16.5 55.8647 16.7041 54.9946 17.0156V13.75C54.9946 9.22754 51.2671 5.5 46.7446 5.5C45.6382 5.5 44.6177 5.79004 43.6509 6.1875C42.7056 2.66406 39.5474 0 35.7446 0ZM35.7446 5.5C37.3022 5.5 38.4946 6.69238 38.4946 8.25V35.75H43.9946V13.75C43.9946 12.1924 45.187 11 46.7446 11C48.3022 11 49.4946 12.1924 49.4946 13.75V35.75H54.9946V24.75C54.9946 23.1924 56.187 22 57.7446 22C59.3022 22 60.4946 23.1924 60.4946 24.75V57.75C60.4946 65.377 54.3716 71.5 46.7446 71.5H34.0259C30.5239 71.5 27.5161 69.792 25.0024 67.2891L6.26806 48.7266C5.17236 47.6309 5.17236 45.8691 6.26806 44.7734C7.36377 43.6777 9.12549 43.6777 10.2212 44.7734L17.2681 51.9062L21.9946 56.6328V13.75C21.9946 12.1924 23.187 11 24.7446 11C26.3022 11 27.4946 12.1924 27.4946 13.75V35.75H32.9946V8.25C32.9946 6.69238 34.187 5.5 35.7446 5.5Z" fill="#DCDCDC"/>
</svg>
