<svg width="112" height="70" viewBox="0 0 112 70" fill="none" xmlns="http://www.w3.org/2000/svg">
<path d="M20.3363 1.31771C21.9562 2.25292 22.4446 4.58672 22.5063 6.3502C22.5155 6.89544 22.4904 7.31293 22.3718 7.89241L19.9 21.1519C19.7472 21.6036 19.7564 22.1489 19.8933 22.6599L20.5437 25.0872C21.5565 24.2681 22.7405 24.0878 24.1892 24.3842C26.2516 24.927 27.7871 26.5694 28.3691 28.7412L31.7237 41.2611C31.9291 42.0276 32.0068 42.8283 31.9566 43.6633L30.8693 53.4025C31.994 53.5119 33.1621 54.2943 33.5044 55.5719L35.1475 61.704C35.5583 63.2371 34.6231 64.8569 33.09 65.2677L20.0592 68.7593C18.3984 69.2043 16.7786 68.2691 16.3678 66.736L14.7247 60.6039C14.4166 59.4541 14.8158 58.3887 15.5731 57.638L12.0473 44.4795C11.9446 44.0962 11.8761 43.8407 11.9012 43.4232L10.1131 22.9527C10.0697 22.2797 10.0605 21.7345 10.1791 21.155L13.7298 5.27871C14.1791 3.37831 15.404 1.81774 16.9964 1.11723C18.6229 0.544473 19.6541 0.815864 20.3363 1.31771ZM17.2798 59.9193L18.9229 66.0514C18.9571 66.1792 19.1191 66.2727 19.2468 66.2385L32.2777 62.7469C32.4054 62.7126 32.4989 62.5506 32.4647 62.4229L30.8216 56.2907C30.7874 56.163 30.6254 56.0695 30.4976 56.1037L29.6034 56.3433L17.4668 59.5953C17.3391 59.6295 17.2455 59.7915 17.2798 59.9193ZM18.192 3.53537C17.332 3.90274 16.7366 4.7469 16.4652 5.77809L12.9145 21.6544C12.8552 21.9441 12.8302 22.3616 12.8986 22.6171L14.6867 43.0876C14.7209 43.2154 14.7894 43.4709 14.8236 43.5986L18.281 56.5017L27.9902 53.9001L29.2555 43.2917C29.2805 42.8742 29.2714 42.3289 29.1687 41.9457L25.814 29.4259C25.4717 28.1483 24.5248 27.1697 23.4936 26.8983C22.7522 26.6862 22.2412 26.8231 21.9013 27.5988C21.3995 28.281 21.2558 29.278 21.5297 30.3L24.7474 42.3088C24.9528 43.0753 24.5787 43.7233 23.8122 43.9286C23.0457 44.134 22.3977 43.7599 22.1924 42.9934L18.9746 30.9846C18.7692 30.2181 18.6916 29.4174 18.7759 28.7101L17.3382 23.3445C17.0986 22.4502 17.1145 21.4875 17.1646 20.6525L19.6365 7.39303C19.6957 7.10329 19.755 6.81355 19.6866 6.55804C19.6248 4.79456 19.0955 3.84099 18.7373 3.5262C18.8308 3.36421 18.5753 3.43268 18.192 3.53537Z" fill="#B9B9B9"/>
<path d="M28.7288 19.7111C28.7288 17.8715 29.1268 16.2353 29.9228 14.8025C30.7188 13.3521 31.8243 12.2289 33.2394 11.4329C34.6721 10.6192 36.2906 10.2124 38.0948 10.2124C40.3059 10.2124 42.1986 10.7961 43.7728 11.9635C45.3471 13.131 46.3996 14.7229 46.9302 16.7394H41.9421C41.5706 15.9611 41.04 15.3686 40.3501 14.9617C39.678 14.5549 38.9085 14.3515 38.0418 14.3515C36.6444 14.3515 35.5123 14.8379 34.6456 15.8108C33.7789 16.7836 33.3455 18.0837 33.3455 19.7111C33.3455 21.3384 33.7789 22.6385 34.6456 23.6114C35.5123 24.5842 36.6444 25.0706 38.0418 25.0706C38.9085 25.0706 39.678 24.8672 40.3501 24.4604C41.04 24.0536 41.5706 23.461 41.9421 22.6827H46.9302C46.3996 24.6992 45.3471 26.2911 43.7728 27.4586C42.1986 28.6083 40.3059 29.1832 38.0948 29.1832C36.2906 29.1832 34.6721 28.7852 33.2394 27.9892C31.8243 27.1756 30.7188 26.0524 29.9228 24.6196C29.1268 23.1868 28.7288 21.5507 28.7288 19.7111ZM56.448 29.2363C55.0859 29.2363 53.8654 29.0152 52.7865 28.573C51.7075 28.1307 50.8407 27.4763 50.1863 26.6095C49.5495 25.7428 49.2134 24.6992 49.178 23.4787H54.007C54.0777 24.1685 54.3165 24.6992 54.7233 25.0706C55.1302 25.4244 55.6608 25.6013 56.3153 25.6013C56.9875 25.6013 57.5181 25.4509 57.9073 25.1502C58.2964 24.8319 58.491 24.3985 58.491 23.8501C58.491 23.3902 58.3318 23.0099 58.0134 22.7092C57.7127 22.4085 57.3324 22.1609 56.8725 21.9663C56.4303 21.7718 55.7935 21.5507 54.9621 21.303C53.7593 20.9316 52.7776 20.5601 52.017 20.1886C51.2564 19.8172 50.6019 19.2688 50.0536 18.5436C49.5053 17.8184 49.2311 16.8721 49.2311 15.7046C49.2311 13.9712 49.859 12.618 51.1149 11.6451C52.3708 10.6546 54.007 10.1593 56.0234 10.1593C58.0753 10.1593 59.7292 10.6546 60.985 11.6451C62.2409 12.618 62.9131 13.98 63.0015 15.7312H58.093C58.0576 15.1298 57.8365 14.661 57.4297 14.3249C57.0228 13.9712 56.501 13.7943 55.8642 13.7943C55.3159 13.7943 54.8737 13.9446 54.5376 14.2453C54.2015 14.5284 54.0335 14.944 54.0335 15.4924C54.0335 16.0938 54.3165 16.5625 54.8825 16.8986C55.4486 17.2347 56.333 17.5973 57.5358 17.9864C58.7386 18.3933 59.7115 18.7824 60.4544 19.1539C61.215 19.5253 61.8695 20.0648 62.4178 20.7724C62.9661 21.4799 63.2403 22.3909 63.2403 23.5052C63.2403 24.5665 62.9661 25.5305 62.4178 26.3973C61.8871 27.264 61.1089 27.9539 60.0829 28.4668C59.057 28.9798 57.8453 29.2363 56.448 29.2363ZM75.5311 29.0505L71.6574 22.0194H70.5695V29.0505H66.0324V10.4246H73.6473C75.1154 10.4246 76.3625 10.6811 77.3884 11.1941C78.432 11.7071 79.2103 12.4146 79.7233 13.3167C80.2362 14.2011 80.4927 15.1917 80.4927 16.2883C80.4927 17.5265 80.139 18.6321 79.4314 19.6049C78.7416 20.5778 77.7156 21.2676 76.3536 21.6745L80.6519 29.0505H75.5311ZM70.5695 18.8089H73.382C74.2133 18.8089 74.8324 18.6055 75.2393 18.1987C75.6638 17.7919 75.876 17.217 75.876 16.4741C75.876 15.7665 75.6638 15.2094 75.2393 14.8025C74.8324 14.3957 74.2133 14.1923 73.382 14.1923H70.5695V18.8089Z" fill="#B9B9B9"/>
<path d="M91.359 1.31771C89.7392 2.25292 89.2507 4.58672 89.189 6.3502C89.1798 6.89544 89.2049 7.31293 89.3235 7.89241L91.7953 21.1519C91.9481 21.6036 91.939 22.1489 91.802 22.6599L91.1516 25.0872C90.1388 24.2681 88.9548 24.0878 87.5061 24.3842C85.4437 24.927 83.9082 26.5694 83.3263 28.7412L79.9716 41.2611C79.7662 42.0276 79.6886 42.8283 79.7387 43.6633L80.8261 53.4025C79.7013 53.5119 78.5332 54.2943 78.1909 55.5719L76.5478 61.704C76.137 63.2371 77.0722 64.8569 78.6053 65.2677L91.6361 68.7593C93.2969 69.2043 94.9167 68.2691 95.3275 66.736L96.9706 60.6039C97.2787 59.4541 96.8796 58.3887 96.1222 57.638L99.648 44.4795C99.7507 44.0962 99.8192 43.8407 99.7941 43.4232L101.582 22.9527C101.626 22.2797 101.635 21.7345 101.516 21.155L97.9655 5.27871C97.5162 3.37831 96.2913 1.81774 94.6989 1.11723C93.0724 0.544473 92.0412 0.815864 91.359 1.31771ZM94.4156 59.9193L92.7724 66.0514C92.7382 66.1792 92.5762 66.2727 92.4485 66.2385L79.4176 62.7469C79.2899 62.7126 79.1964 62.5506 79.2306 62.4229L80.8737 56.2907C80.9079 56.163 81.0699 56.0695 81.1977 56.1037L82.092 56.3433L94.2285 59.5953C94.3563 59.6295 94.4498 59.7915 94.4156 59.9193ZM93.5033 3.53537C94.3633 3.90274 94.9587 4.7469 95.2301 5.77809L98.7808 21.6544C98.8401 21.9441 98.8652 22.3616 98.7967 22.6171L97.0086 43.0876C96.9744 43.2154 96.9059 43.4709 96.8717 43.5986L93.4143 56.5017L83.7051 53.9001L82.4398 43.2917C82.4148 42.8742 82.424 42.3289 82.5266 41.9457L85.8813 29.4259C86.2236 28.1483 87.1705 27.1697 88.2017 26.8983C88.9431 26.6862 89.4542 26.8231 89.794 27.5988C90.2959 28.281 90.4395 29.278 90.1656 30.3L86.9479 42.3088C86.7425 43.0753 87.1166 43.7233 87.8831 43.9286C88.6496 44.134 89.2976 43.7599 89.503 42.9934L92.7207 30.9846C92.9261 30.2181 93.0037 29.4174 92.9194 28.7101L94.3571 23.3445C94.5967 22.4502 94.5808 21.4875 94.5307 20.6525L92.0589 7.39303C91.9996 7.10329 91.9403 6.81355 92.0087 6.55804C92.0705 4.79456 92.5999 3.84099 92.9581 3.5262C92.8645 3.36421 93.12 3.43268 93.5033 3.53537Z" fill="#B9B9B9"/>
</svg>
