<svg width="179" height="179" viewBox="0 0 179 179" fill="none" xmlns="http://www.w3.org/2000/svg">
<g clip-path="url(#clip0_732_22)">
<g clip-path="url(#clip1_732_22)">
<path d="M87 0.75C78.1846 0.75 70.8633 6.92578 68.6719 15.0938C66.4307 14.1724 64.0649 13.5 61.5 13.5C51.0161 13.5 42.375 22.1411 42.375 32.625V101.156L36.7969 95.5781C29.376 88.1572 17.124 88.1572 9.70312 95.5781C2.28223 102.999 2.28223 115.251 9.70312 122.672L52.9336 165.902C60.4292 173.373 70.7886 179.25 83.0156 179.25H112.5C137.079 179.25 157.125 159.204 157.125 134.625V58.125C157.125 47.6411 148.484 39 138 39C135.759 39 133.642 39.4731 131.625 40.1953V32.625C131.625 22.1411 122.984 13.5 112.5 13.5C109.935 13.5 107.569 14.1724 105.328 15.0938C103.137 6.92578 95.8154 0.75 87 0.75ZM87 13.5C90.6108 13.5 93.375 16.2642 93.375 19.875V83.625H106.125V32.625C106.125 29.0142 108.889 26.25 112.5 26.25C116.111 26.25 118.875 29.0142 118.875 32.625V83.625H131.625V58.125C131.625 54.5142 134.389 51.75 138 51.75C141.611 51.75 144.375 54.5142 144.375 58.125V134.625C144.375 152.306 130.181 166.5 112.5 166.5H83.0156C74.8975 166.5 67.9248 162.541 62.0977 156.738L18.668 113.707C16.1279 111.167 16.1279 107.083 18.668 104.543C21.208 102.003 25.292 102.003 27.832 104.543L44.168 121.078L55.125 132.035V32.625C55.125 29.0142 57.8892 26.25 61.5 26.25C65.1108 26.25 67.875 29.0142 67.875 32.625V83.625H80.625V19.875C80.625 16.2642 83.3892 13.5 87 13.5Z" fill="#2F469A"/>
</g>
</g>
<defs>
<clipPath id="clip0_732_22">
<rect width="179" height="179" fill="white"/>
</clipPath>
<clipPath id="clip1_732_22">
<rect width="179" height="179" fill="white"/>
</clipPath>
</defs>
</svg>
