<svg width="80" height="85" viewBox="0 0 80 85" fill="none" xmlns="http://www.w3.org/2000/svg">
<path d="M40 5.3125C36.543 5.3125 33.6719 7.88574 32.8125 11.2891C31.9336 10.9052 31.0059 10.625 30 10.625C25.8887 10.625 22.5 14.2255 22.5 18.5938V47.1484L20.3125 44.8242C17.4023 41.7322 12.5977 41.7322 9.6875 44.8242C6.77734 47.9163 6.77734 53.0212 9.6875 56.1133L26.6406 74.126C29.5801 77.2388 33.6426 79.6875 38.4375 79.6875H50C59.6387 79.6875 67.5 71.3348 67.5 61.0938V29.2188C67.5 24.8505 64.1113 21.25 60 21.25C59.1211 21.25 58.291 21.4471 57.5 21.748V18.5938C57.5 14.2255 54.1113 10.625 50 10.625C48.9941 10.625 48.0664 10.9052 47.1875 11.2891C46.3281 7.88574 43.457 5.3125 40 5.3125ZM40 10.625C41.416 10.625 42.5 11.7767 42.5 13.2812V39.8438H47.5V18.5938C47.5 17.0892 48.584 15.9375 50 15.9375C51.416 15.9375 52.5 17.0892 52.5 18.5938V39.8438H57.5V29.2188C57.5 27.7142 58.584 26.5625 60 26.5625C61.416 26.5625 62.5 27.7142 62.5 29.2188V61.0938C62.5 68.4607 56.9336 74.375 50 74.375H38.4375C35.2539 74.375 32.5195 72.7252 30.2344 70.3076L13.2031 52.3779C12.207 51.3196 12.207 49.6179 13.2031 48.5596C14.1992 47.5012 15.8008 47.5012 16.7969 48.5596L23.2031 55.4492L27.5 60.0146V18.5938C27.5 17.0892 28.584 15.9375 30 15.9375C31.416 15.9375 32.5 17.0892 32.5 18.5938V39.8438H37.5V13.2812C37.5 11.7767 38.584 10.625 40 10.625Z" fill="#2F469A"/>
</svg>
