<svg width="84" height="84" viewBox="0 0 84 84" fill="none" xmlns="http://www.w3.org/2000/svg">
<path d="M76.293 51.7152C75.1879 51.2506 73.9042 50.9802 72.5576 50.9802C71.043 50.9802 69.6097 51.3215 68.3287 51.9305L68.3891 51.9042L53.2219 58.7161C53.2297 58.5927 53.2901 58.4877 53.2901 58.3644C53.2507 54.7655 50.3265 51.8649 46.7224 51.8649C46.5412 51.8649 46.3627 51.8727 46.1868 51.8859L46.2105 51.8832H36.2801L23.7851 48.2214C23.6224 48.1689 23.436 48.14 23.2417 48.14H23.2312H17.5376V46.1529C17.5376 45.0661 16.6556 44.1841 15.5689 44.1841H5.37598C4.28923 44.1841 3.40723 45.0661 3.40723 46.1529V78.1989C3.40723 79.2856 4.28923 80.1676 5.37598 80.1676H15.5689C16.6556 80.1676 17.5376 79.2856 17.5376 78.1989V75.5607C22.3099 76.3062 26.5807 77.5085 30.6285 79.1491L30.2374 79.0074C33.2561 80.0994 36.7421 80.7294 40.3751 80.7294C40.3935 80.7294 40.4118 80.7294 40.4302 80.7294H40.4276C40.4407 80.7294 40.4565 80.7294 40.4722 80.7294C44.6827 80.7294 48.6964 79.892 52.3582 78.3721L52.1535 78.4482C55.4164 76.9966 58.1857 75.4662 60.8081 73.7259L60.5928 73.8597C61.4801 73.3111 62.3621 72.7625 63.2546 72.2349C67.5412 69.6965 70.9852 67.4679 74.0932 65.2209C75.6131 64.1394 76.9361 63.071 78.1961 61.9317L78.1593 61.9659C79.1385 61.1731 79.9207 60.1756 80.4457 59.0364L80.4667 58.9865C80.5481 58.7791 80.5927 58.5402 80.5927 58.2882C80.5927 58.1386 80.577 57.9942 80.5455 57.8551L80.5481 57.8682C80.1648 55.1986 78.5662 52.97 76.3402 51.7336L76.2982 51.7126L76.293 51.7152ZM13.6001 76.2327H7.34473V48.1216H13.6001V76.2327ZM75.3874 59.1702C74.3058 60.1415 73.1299 61.0839 71.9014 61.958L71.778 62.042C68.7776 64.2102 65.4307 66.3732 61.2412 68.8565C60.3277 69.3946 59.4273 69.9537 58.5191 70.5129C56.2773 72.017 53.697 73.4529 51.0011 74.6761L50.6599 74.8152C47.6358 76.0595 44.1236 76.7787 40.4433 76.7787C37.2855 76.7787 34.251 76.2459 31.4238 75.2694L31.6181 75.3271C27.5362 73.6261 22.7902 72.3215 17.8421 71.6337L17.535 71.5996V52.0801H22.9477L35.4427 55.742C35.6055 55.7945 35.7919 55.8234 35.9861 55.8234H35.9966H46.2079C48.5257 55.8234 49.35 57.191 49.35 58.367C49.35 59.543 48.5257 60.9106 46.2079 60.9106H28.3342C27.2475 60.9106 26.3655 61.7926 26.3655 62.8794C26.3655 63.9661 27.2475 64.8481 28.3342 64.8481H48.7594H48.7699C49.0586 64.8481 49.3316 64.7851 49.5757 64.6696L49.5652 64.6749L70.0271 55.4874C70.7831 55.1409 71.6677 54.9387 72.5996 54.9387C73.2952 54.9387 73.9646 55.0516 74.5894 55.259L74.5447 55.2459C75.5501 55.8496 76.272 56.8314 76.5187 57.9916L76.524 58.0205C76.167 58.4379 75.7942 58.8132 75.3979 59.1624L75.3847 59.1729L75.3874 59.1702ZM43.134 43.9426C43.4962 44.3442 44.016 44.5936 44.5961 44.5936C45.1762 44.5936 45.696 44.3442 46.0556 43.9452L46.0582 43.9426L61.7268 26.5756C64.5671 23.9322 66.3836 20.2205 66.5359 16.0835V16.0572C66.5359 16.0257 66.5359 15.989 66.5359 15.9522C66.5359 12.4557 65.1105 9.29525 62.8083 7.01412C60.4354 4.70937 57.1961 3.28662 53.6208 3.28662C50.1191 3.28662 46.9376 4.65162 44.5777 6.875L44.5856 6.86975C42.3517 4.97187 39.4354 3.81687 36.2486 3.81687C35.1146 3.81687 34.0174 3.96387 32.97 4.23687L33.0592 4.21587C28.455 5.52312 24.9034 9.07737 23.6171 13.5845L23.5935 13.6816C23.3467 14.6371 23.205 15.7317 23.205 16.8631C23.205 20.6825 24.8299 24.1239 27.4286 26.531L27.4365 26.5389L43.134 43.9426ZM27.3971 14.7027C28.3185 11.453 30.8253 8.94612 34.0069 8.03787L34.0751 8.02212C34.7287 7.83837 35.4821 7.73337 36.2591 7.73337C39.0101 7.82262 41.4645 9.0275 43.197 10.907L43.2022 10.9149C43.5592 11.2719 44.0501 11.4924 44.5935 11.4924C45.1369 11.4924 45.6303 11.2719 45.9847 10.9149C47.9325 8.76762 50.6835 7.379 53.7574 7.2215H53.7836H53.8492C58.6845 7.253 62.5905 11.18 62.5905 16.0179C62.5905 16.0231 62.5905 16.0257 62.5905 16.031C62.433 19.1337 61.0443 21.8821 58.9076 23.8246L58.8997 23.8325L58.8288 23.906L44.5909 39.6901L30.2846 23.8325C28.35 22.1236 27.1372 19.6377 27.1372 16.8684C27.1372 16.1019 27.2291 15.3564 27.405 14.6424L27.3919 14.7054L27.3971 14.7027Z" fill="#2F469A"/>
</svg>
